<?xml version="1.0" encoding="UTF-8"?>
<svg xmlns="http://www.w3.org/2000/svg" width="32" height="32" viewBox="0 0 32 32">
  <defs>
    <linearGradient id="machineBody" x1="0" y1="0" x2="0" y2="1">
      <stop offset="0%" stop-color="#777"/>
      <stop offset="100%" stop-color="#222"/>
    </linearGradient>
    <radialGradient id="machineHighlight" cx="0.3" cy="0.3" r="0.7">
      <stop offset="0%" stop-color="#fff" stop-opacity="0.7"/>
      <stop offset="100%" stop-color="#fff" stop-opacity="0"/>
    </radialGradient>
    <filter id="shadow" x="-20%" y="-20%" width="140%" height="140%">
      <feDropShadow dx="0" dy="1" stdDeviation="1" flood-color="#000" flood-opacity="0.6"/>
    </filter>
  </defs>
  <!-- Main body -->
  <g filter="url(#shadow)">
    <rect x="4" y="4" width="24" height="24" rx="3" fill="url(#machineBody)" stroke="#999" stroke-width="1.5"/>
    <rect x="4" y="4" width="24" height="24" rx="3" fill="url(#machineHighlight)"/>
  </g>
  <!-- Bolts -->
  <g fill="#bbb" stroke="#666" stroke-width="0.5">
    <circle cx="6" cy="6" r="1"/>
    <circle cx="26" cy="6" r="1"/>
    <circle cx="6" cy="26" r="1"/>
    <circle cx="26" cy="26" r="1"/>
  </g>
  <!-- Display with green dots -->
  <rect x="9" y="9" width="14" height="8" rx="1" fill="#001a00" stroke="#0f0" stroke-width="0.5"/>
  <g fill="#00ff33">
    <circle cx="11" cy="11" r="0.5"/>
    <circle cx="14" cy="11" r="0.5"/>
    <circle cx="17" cy="11" r="0.5"/>
    <circle cx="20" cy="11" r="0.5"/>
    <circle cx="23" cy="11" r="0.5"/>
    <circle cx="11" cy="14" r="0.5"/>
    <circle cx="14" cy="14" r="0.5"/>
    <circle cx="17" cy="14" r="0.5"/>
    <circle cx="20" cy="14" r="0.5"/>
    <circle cx="23" cy="14" r="0.5"/>
  </g>
  <!-- Vents -->
  <rect x="10" y="20" width="12" height="2" fill="#444"/>
  <rect x="10" y="23" width="12" height="2" fill="#444"/>
  <!-- Electrical sparks -->
  <path d="M4 10 l-3 2 5 2-5 2 5 2" fill="none" stroke="#f8e71c" stroke-width="1"/>
  <path d="M28 22 l3-2-5-2 5-2-5-2" fill="none" stroke="#f8e71c" stroke-width="1"/>
</svg>
