<svg xmlns="http://www.w3.org/2000/svg" width="32" height="24" viewBox="0 0 32 24">
  <defs>
    <linearGradient id="frame" x1="0" y1="0" x2="0" y2="1">
      <stop offset="0%" stop-color="#666"/>
      <stop offset="100%" stop-color="#333"/>
    </linearGradient>
    <radialGradient id="highlight" cx="0.3" cy="0.2" r="0.7">
      <stop offset="0%" stop-color="#ffffff" stop-opacity="0.7"/>
      <stop offset="100%" stop-color="#ffffff" stop-opacity="0"/>
    </radialGradient>
    <filter id="shadow" x="-20%" y="-20%" width="140%" height="140%">
      <feDropShadow dx="0" dy="1" stdDeviation="1" flood-color="#000" flood-opacity="0.5"/>
    </filter>
    <linearGradient id="heroBody" x1="0" y1="0" x2="0" y2="1">
      <stop offset="0%" stop-color="#aee868"/>
      <stop offset="100%" stop-color="#6aa84f"/>
    </linearGradient>
    <linearGradient id="rivalBody" x1="0" y1="0" x2="0" y2="1">
      <stop offset="0%" stop-color="#ffb3b3"/>
      <stop offset="100%" stop-color="#d95757"/>
    </linearGradient>
  </defs>
  <!-- Monitor frame -->
  <g filter="url(#shadow)">
    <rect x="1" y="1" width="30" height="18" rx="2" fill="url(#frame)" stroke="#222" stroke-width="1.5"/>
    <rect x="1" y="1" width="30" height="18" rx="2" fill="url(#highlight)"/>
  </g>
  <!-- Screen -->
  <rect x="4" y="4" width="24" height="12" rx="1" fill="#001a11" stroke="#0f0" stroke-width="0.8"/>
  <g transform="translate(6,4.5) scale(0.25)">
      <ellipse cx="16" cy="25" rx="6" ry="7" fill="url(#heroBody)" stroke="#4e7c3a" stroke-width="2"/>
    <ellipse cx="11" cy="34" rx="4" ry="2" fill="#8cc84b"/>
    <ellipse cx="21" cy="34" rx="4" ry="2" fill="#8cc84b"/>
    <ellipse cx="16" cy="12" rx="11" ry="10" fill="url(#heroBody)" stroke="#4e7c3a" stroke-width="2"/>
    <ellipse cx="8" cy="14" rx="4" ry="2" fill="#8cc84b"/>
    <ellipse cx="24" cy="14" rx="4" ry="2" fill="#8cc84b"/>
    <circle cx="10" cy="6" r="4" fill="#ffffff"/>
    <circle cx="22" cy="6" r="4" fill="#ffffff"/>
    <circle cx="10" cy="6" r="2" fill="#000000"/>
    <circle cx="22" cy="6" r="2" fill="#000000"/>
    <path d="M12 12 Q16 16 20 12" stroke="#000000" stroke-width="2" fill="none" stroke-linecap="round"/>
    <path d="M8 10 C10 8, 22 8, 24 10" stroke="#e07070" stroke-width="3" fill="none" stroke-linecap="round"/>
  </g>
  <g transform="translate(18,4.5) scale(0.25)">
    <ellipse cx="16" cy="25" rx="6" ry="7" fill="url(#rivalBody)" stroke="#aa3939" stroke-width="2"/>
    <ellipse cx="11" cy="34" rx="4" ry="2" fill="#ff8080"/>
    <ellipse cx="21" cy="34" rx="4" ry="2" fill="#ff8080"/>
    <ellipse cx="16" cy="12" rx="11" ry="10" fill="url(#rivalBody)" stroke="#aa3939" stroke-width="2"/>
    <ellipse cx="8" cy="14" rx="4" ry="2" fill="#ff8080"/>
    <ellipse cx="24" cy="14" rx="4" ry="2" fill="#ff8080"/>
    <circle cx="10" cy="6" r="4" fill="#ffffff"/>
    <circle cx="22" cy="6" r="4" fill="#ffffff"/>
    <circle cx="10" cy="6" r="2" fill="#000000"/>
    <circle cx="22" cy="6" r="2" fill="#000000"/>
    <path d="M12 12 Q16 8 20 12" stroke="#000000" stroke-width="2" fill="none" stroke-linecap="round"/>
    <path d="M8 10 C10 8, 22 8, 24 10" stroke="#e07070" stroke-width="3" fill="none" stroke-linecap="round"/>
  </g>
  <!-- Stand -->
  <rect x="14" y="19" width="4" height="3" fill="#444"/>
  <rect x="10" y="22" width="12" height="2" rx="1" fill="#555"/>
</svg>
