<svg xmlns="http://www.w3.org/2000/svg" width="32" height="32">
  <path d="M5 0 H32 V32 H5 A5 5 0 0 1 0 27 V5 A5 5 0 0 1 5 0 Z" fill="#18294B"/>
  <path d="M0 27 V5 A5 5 0 0 1 5 0 H32" fill="none" stroke="#2a4776" stroke-width="1"/>
  <path d="M32 0 V32 H5" fill="none" stroke="#385a7c" stroke-width="1"/>
  <path d="M6 6 H26 V26 H6 Z" fill="none" stroke="#385a7c" stroke-width="0.5"/>
  <path d="M16.0 6 V26" stroke="#2a4776" stroke-width="0.5"/><path d="M6 16.0 H26" stroke="#2a4776" stroke-width="0.5"/><path d="M6 6 L26 26" stroke="#385a7c" stroke-width="0.5"/><path d="M26 6 L6 26" stroke="#385a7c" stroke-width="0.5"/>
  <rect x="4" y="4" width="1" height="1" fill="#2d4870"/> <rect x="12" y="4" width="1" height="1" fill="#2d4870"/> <rect x="20" y="4" width="1" height="1" fill="#2d4870"/> <rect x="28" y="4" width="1" height="1" fill="#2d4870"/> <rect x="4" y="12" width="1" height="1" fill="#2d4870"/> <rect x="12" y="12" width="1" height="1" fill="#2d4870"/> <rect x="20" y="12" width="1" height="1" fill="#2d4870"/> <rect x="28" y="12" width="1" height="1" fill="#2d4870"/> <rect x="4" y="20" width="1" height="1" fill="#2d4870"/> <rect x="12" y="20" width="1" height="1" fill="#2d4870"/> <rect x="20" y="20" width="1" height="1" fill="#2d4870"/> <rect x="28" y="20" width="1" height="1" fill="#2d4870"/> <rect x="4" y="28" width="1" height="1" fill="#2d4870"/> <rect x="12" y="28" width="1" height="1" fill="#2d4870"/> <rect x="20" y="28" width="1" height="1" fill="#2d4870"/> <rect x="28" y="28" width="1" height="1" fill="#2d4870"/>
</svg>
